Coordinates
version=1
nRows=19
nColumns=34
inDegrees=no

Units are S.I. units (second, meters, Newtons, ...)
If the header above contains a line with 'inDegrees', this indicates whether rotational values are in degrees (yes) or radians (no).

endheader
time	pelvis_tilt	pelvis_list	pelvis_rotation	pelvis_tx	pelvis_ty	pelvis_tz	hip_flexion_r	hip_adduction_r	hip_rotation_r	knee_angle_r	ankle_angle_r	subtalar_angle_r	mtp_angle_r	hip_flexion_l	hip_adduction_l	hip_rotation_l	knee_angle_l	ankle_angle_l	subtalar_angle_l	mtp_angle_l	lumbar_extension	lumbar_bending	lumbar_rotation	arm_flex_r	arm_add_r	arm_rot_r	elbow_flex_r	pro_sup_r	arm_flex_l	arm_add_l	arm_rot_l	elbow_flex_l	pro_sup_l
0	-0.343646	0.224757	-0.160766	-5.86836	0.962788	0.185172	-0.321242	-0.285711	-0.175551	0.138071	-0.510514	0.149577	0.111908	1.63764	-0.156844	-0.252498	1.82638	0.0431368	-0.477444	0.401404	0.203759	-0.30363	0.332135	0.919158	-0.309912	0.0596954	1.72116	2.19922	-1.49884	-0.381104	-0.294136	0.961752	2.10152
0.001	-0.334356	0.245382	-0.187448	-5.82961	0.962582	0.183985	-0.352255	-0.32498	-0.170195	0.128564	-0.584255	0.111965	0.409068	1.6362	-0.174742	-0.263399	1.7664	0.0272563	-0.479936	0.763813	0.213369	-0.31677	0.369471	0.954124	-0.322122	0.0602993	1.75223	2.19559	-1.52764	-0.355647	-0.358027	0.930648	2.16379
0.002	-0.340493	0.240907	-0.173697	-5.7918	0.963341	0.183438	-0.372055	-0.321411	-0.18584	0.144414	-0.577213	0.0764086	0.171445	1.64509	-0.160914	-0.2544	1.68952	0.051419	-0.410189	0.291657	0.218607	-0.313568	0.357533	0.980811	-0.322122	0.0570918	1.7834	2.19294	-1.55838	-0.326011	-0.385955	0.988229	1.99198
0.003	-0.330364	0.248132	-0.189243	-5.75337	0.963922	0.183251	-0.395231	-0.340698	-0.172238	0.169842	-0.597847	0.030848	0.384948	1.63068	-0.170454	-0.256045	1.6195	0.0622564	-0.381293	0.297107	0.215463	-0.318357	0.369185	1.00744	-0.321982	0.0575801	1.81449	2.18898	-1.56621	-0.298379	-0.442818	0.95197	2.09537
0.004	-0.338113	0.228044	-0.174887	-5.71684	0.965029	0.184561	-0.400496	-0.312836	-0.147987	0.222166	-0.561209	-0.0387441	0.113765	1.62668	-0.15949	-0.230271	1.53851	0.072091	-0.353809	0.33483	0.212074	-0.30326	0.347702	1.02456	-0.317612	0.0522295	1.85056	2.18097	-1.5708	-0.271378	-0.4764	0.982321	2.06346
0.005	-0.332234	0.215431	-0.170555	-5.67901	0.966276	0.184811	-0.414553	-0.30015	-0.13134	0.275351	-0.537802	-0.0887827	0.146901	1.6045	-0.156546	-0.219759	1.46105	0.0904944	-0.310786	0.267368	0.199784	-0.293848	0.338105	1.03447	-0.321925	0.0449106	1.88613	2.205	-1.5708	-0.249623	-0.487036	0.983747	1.89009
0.006	-0.327568	0.217162	-0.149832	-5.64115	0.968005	0.182874	-0.425117	-0.300849	-0.149384	0.342353	-0.495774	-0.117552	0.216481	1.57843	-0.128168	-0.221431	1.37241	0.103491	-0.281262	0.258624	0.186099	-0.301512	0.312875	1.037	-0.323876	0.0403167	1.92412	2.20766	-1.56188	-0.234011	-0.510142	0.961606	1.8965
0.007	-0.325836	0.213236	-0.126196	-5.60394	0.969818	0.181433	-0.429819	-0.29257	-0.16159	0.414053	-0.467051	-0.148408	0.238846	1.55162	-0.0973751	-0.214713	1.28105	0.110984	-0.244423	0.210776	0.171342	-0.304902	0.282997	1.03309	-0.326287	0.0307084	1.95829	2.2481	-1.54411	-0.221639	-0.532803	0.935313	1.93294
0.008	-0.320132	0.209411	-0.108005	-5.56655	0.971587	0.180545	-0.434592	-0.286462	-0.169131	0.488464	-0.458826	-0.169674	0.239089	1.51795	-0.0738586	-0.209773	1.19119	0.121627	-0.194876	0.188067	0.153651	-0.308517	0.25687	1.02197	-0.328205	0.0245081	1.99473	2.25866	-1.52861	-0.210629	-0.541324	0.933193	1.92147
0.009	-0.314688	0.205305	-0.0855729	-5.52892	0.973641	0.17924	-0.436582	-0.281359	-0.184735	0.571337	-0.426914	-0.181409	0.320092	1.48165	-0.0461264	-0.206635	1.10383	0.128608	-0.15543	0.185476	0.135741	-0.311903	0.226535	1.00051	-0.330226	0.0174595	2.02922	2.26906	-1.51141	-0.202704	-0.545708	0.931636	1.92653
0.01	-0.309746	0.198874	-0.0705105	-5.49177	0.975591	0.178747	-0.433333	-0.271893	-0.184707	0.649756	-0.450626	-0.195817	0.298031	1.44504	-0.0282839	-0.203234	1.02029	0.130034	-0.114135	0.163561	0.11923	-0.311534	0.203151	0.973262	-0.332505	0.00914761	2.05922	2.29705	-1.49164	-0.197293	-0.541987	0.937439	1.90316
0.011	-0.298167	0.188741	-0.0584598	-5.45425	0.97799	0.178044	-0.431525	-0.264327	-0.188061	0.738697	-0.441108	-0.206156	0.360787	1.40138	-0.0130065	-0.198007	0.946415	0.133019	-0.075295	0.14198	0.0960886	-0.305622	0.180953	0.939335	-0.337252	0.00404509	2.08589	2.31652	-1.46892	-0.193698	-0.533284	0.946057	1.89489
0.012	-0.290054	0.17768	-0.048597	-5.4168	0.980224	0.17798	-0.420835	-0.252958	-0.183402	0.823369	-0.470909	-0.223754	0.358341	1.36113	-0.00403393	-0.194615	0.877464	0.132102	-0.0370206	0.132257	0.0780534	-0.297795	0.162913	0.89766	-0.339275	0.000274344	2.11137	2.32127	-1.44486	-0.194118	-0.522402	0.95756	1.89419
0.013	-0.280171	0.152557	-0.0387767	-5.37908	0.983092	0.179205	-0.404751	-0.223333	-0.149867	0.899136	-0.537629	-0.195781	0.340124	1.31982	-0.00570625	-0.185558	0.818568	0.130489	0.00567796	0.139766	0.0573567	-0.275582	0.144757	0.847388	-0.338256	-0.00387109	2.13089	2.33086	-1.41595	-0.19839	-0.507751	0.96865	1.89728
0.014	-0.27625	0.137363	-0.0374198	-5.3426	0.984835	0.180189	-0.379073	-0.207805	-0.120996	0.997948	-0.517253	-0.173791	0.344984	1.28608	-0.0133098	-0.190485	0.765765	0.12278	0.0371385	0.117984	0.0453742	-0.261093	0.136846	0.798148	-0.337576	-0.00649591	2.14256	2.34492	-1.3876	-0.204641	-0.488003	0.987032	1.89648
0.015	-0.265404	0.124719	-0.0353873	-5.30582	0.9863	0.181012	-0.36206	-0.194874	-0.105825	1.09395	-0.504946	-0.169728	0.349086	1.24831	-0.0185351	-0.198259	0.726824	0.120364	0.0586783	0.121646	0.0267426	-0.247614	0.125816	0.750854	-0.333841	-0.00234085	2.14454	2.35211	-1.35877	-0.212746	-0.464491	1.00646	1.90306
0.016	-0.257216	0.113465	-0.0313898	-5.26912	0.987569	0.181652	-0.340174	-0.182451	-0.0934421	1.1914	-0.479719	-0.162967	0.353442	1.21308	-0.0216497	-0.208329	0.693979	0.115758	0.0713128	0.103445	0.00929213	-0.236593	0.116677	0.695852	-0.333158	-0.00250037	2.14512	2.3561	-1.32712	-0.224852	-0.440306	1.02973	1.9048
0.017	-0.250443	0.107598	-0.0251227	-5.23235	0.988627	0.181617	-0.320718	-0.176188	-0.0931091	1.28342	-0.44429	-0.17409	0.375824	1.17892	-0.0190917	-0.221566	0.666514	0.111284	0.0746727	0.113046	-0.00721989	-0.231514	0.107845	0.637582	-0.331576	-0.00753546	2.13946	2.37226	-1.29468	-0.24084	-0.416522	1.0554	1.91472
0.018	-0.237628	0.104976	-0.0193801	-5.19575	0.989662	0.181855	-0.305246	-0.173734	-0.0931631	1.37564	-0.416849	-0.182315	0.38618	1.1402	-0.0149684	-0.235753	0.64903	0.104661	0.0704413	0.077271	-0.028306	-0.22663	0.0932315	0.58632	-0.322863	-0.00503451	2.11657	2.37747	-1.25935	-0.257014	-0.384289	1.07582	1.91671
